<?xml version="1.0" encoding="UTF-8"?>
<svg version="1.1" xmlns="http://www.w3.org/2000/svg" width="1024" height="1536">
<path d="M0 0 C337.92 0 675.84 0 1024 0 C1024 506.88 1024 1013.76 1024 1536 C686.08 1536 348.16 1536 0 1536 C0 1029.12 0 522.24 0 0 Z " fill="#FDFDFD" transform="translate(0,0)"/>
<path d="M0 0 C14.98081018 14.02518626 25.77485661 33.62427909 35.25 51.625 C35.73355957 52.54249023 36.21711914 53.45998047 36.71533203 54.40527344 C43.19687467 66.95091095 48.21588316 79.86665115 52.625 93.25 C52.865672 93.97865265 53.10634399 94.7073053 53.35430908 95.45803833 C56.60748755 105.34808497 59.82519522 115.15270848 61.54785156 125.44042969 C61.87613035 127.29878543 62.24255226 129.15052997 62.63183594 130.99707031 C66.92439746 151.44776219 67.49016222 171.85307647 67.49855042 192.67533493 C67.49997377 194.7738237 67.50622739 196.8722564 67.51306152 198.97073364 C67.56696549 223.7924547 65.87945146 248.40480947 61.1875 272.8125 C60.92918027 274.19156546 60.67087997 275.57063456 60.41259766 276.94970703 C57.53876382 292.07438224 54.29000731 307.12378294 48.89697266 321.56640625 C47.89465531 324.28581269 47.04932371 327.02710155 46.25 329.8125 C44.96455283 334.12681459 43.52331142 338.33046543 41.93359375 342.54296875 C41.56524414 343.52354248 41.19689453 344.50411621 40.81738281 345.5144043 C40.07365143 347.47963573 39.3193508 349.440905 38.55371094 351.39770508 C38.0379248 352.76318481 38.0379248 352.76318481 37.51171875 354.15625 C37.19678467 354.96900391 36.88185059 355.78175781 36.55737305 356.61914062 C35.57938772 360.79667584 36.96921649 364.24770127 38.6015625 368.08984375 C38.92334473 368.86231445 39.24512695 369.63478516 39.57666016 370.43066406 C39.9226123 371.25791992 40.26856445 372.08517578 40.625 372.9375 C58.89443832 417.77542748 65.61572282 465.17367124 65.3225708 513.32421875 C65.30914345 516.30850888 65.31441648 519.29264978 65.31942558 522.27695656 C65.34920531 545.64848504 64.55342563 568.89576959 60.75 592 C60.5904332 592.98918427 60.5904332 592.98918427 60.42764282 593.99835205 C48.5476418 667.37950869 16.38126243 736.38235653 -33 792 C-33.86882812 792.98097656 -34.73765625 793.96195313 -35.6328125 794.97265625 C-46.62468668 807.16215255 -58.03869611 818.90179011 -71 829 C-73.07108601 830.67722281 -75.12856808 832.37029896 -77.1875 834.0625 C-78.79166667 835.375 -80.39583333 836.6875 -82 838 C-80.55163142 841.24785681 -78.71363433 843.58526128 -76.375 846.25 C-63.12820362 862.59813347 -57.19485705 884.55291491 -54 905 C-54.66 905 -55.32 905 -56 905 C-57.12109375 903.671875 -57.12109375 903.671875 -58.4375 901.75 C-73.08993819 881.6339408 -93.74871275 864.14188852 -117 855 C-117 854.34 -117 853.68 -117 853 C-115.5234375 851.87890625 -115.5234375 851.87890625 -113.375 850.5625 C-103.01161383 843.85965055 -93.64170631 835.90023614 -84.65625 827.46875 C-82.52450377 825.48747998 -80.36209906 823.60792973 -78.125 821.75 C-39.23487004 787.87273502 -13.14400461 736.78132978 1 688 C1.39445312 686.79214844 1.78890625 685.58429687 2.1953125 684.33984375 C6.85627371 669.90429671 9.3382044 654.90524504 12 640 C12.17305664 639.04125977 12.34611328 638.08251953 12.52441406 637.09472656 C22.88283681 578.54614702 24.44654636 485.89309271 -3 431 C-3.66644531 431.99257813 -4.33289063 432.98515625 -5.01953125 434.0078125 C-13.21544318 446.12598935 -21.79635173 457.76376663 -31.734375 468.5234375 C-33.5629653 470.52227586 -35.33039371 472.55004678 -37.09375 474.60546875 C-41.3084592 479.4328989 -45.79258116 483.97866023 -50.32324219 488.50854492 C-51.73919947 489.92668284 -53.14698289 491.35296665 -54.5546875 492.77929688 C-59.98221476 498.21816298 -65.56455956 503.25691459 -71.56640625 508.05444336 C-73.52470198 509.62001907 -75.43606505 511.21060878 -77.3203125 512.86328125 C-85.76833062 520.24058956 -94.71361665 526.71999975 -104 533 C-104.68578125 533.4640625 -105.3715625 533.928125 -106.078125 534.40625 C-140.68255845 557.65197629 -179.47881414 577.00782084 -220.28710938 586.37646484 C-223.11889102 587.0273261 -225.94235214 587.70775061 -228.765625 588.39453125 C-233.07522134 589.43857832 -237.38672505 590.47219566 -241.70751953 591.46899414 C-243.19494215 591.81352494 -244.68046758 592.16639283 -246.16357422 592.52905273 C-252.5126991 594.03648651 -258.89673036 594.82313227 -265.375 595.5625 C-266.43460938 595.68818359 -267.49421875 595.81386719 -268.5859375 595.94335938 C-271.72293845 596.31049613 -274.85883163 596.6700984 -278 597 C-278.80261765 597.08512848 -279.60523529 597.17025696 -280.43217468 597.25796509 C-287.14480279 597.9254506 -293.79165038 598.17346168 -300.53515625 598.203125 C-301.60401062 598.21009399 -302.67286499 598.21706299 -303.77410889 598.22424316 C-307.20361308 598.24154221 -310.63295399 598.24796265 -314.0625 598.25 C-315.8166774 598.25151062 -315.8166774 598.25151062 -317.60629272 598.25305176 C-334.29029001 598.24331154 -350.52199224 597.81612337 -367 595 C-369.01547684 594.68265137 -371.03110584 594.36626778 -373.046875 594.05078125 C-392.63942766 590.89003037 -412.20989516 586.45077615 -431 580 C-431.15662109 581.12148437 -431.15662109 581.12148437 -431.31640625 582.265625 C-434.14965964 593.59863857 -449.81101838 603.03012819 -459.19921875 608.79296875 C-465.59335324 612.58314188 -472.26435629 615.86539691 -479 619 C-479.63437988 619.30583008 -480.26875977 619.61166016 -480.92236328 619.92675781 C-485.65180923 622.11606359 -485.65180923 622.11606359 -489 621 C-488.47792969 620.44054688 -487.95585937 619.88109375 -487.41796875 619.3046875 C-472.06098662 602.57606598 -461.02868771 584.88199281 -452 564 C-446.56987933 564.63841577 -441.54933285 565.89194783 -436.3125 567.4375 C-430.20444596 569.19332444 -424.21828258 570.60631055 -417.91601562 571.50048828 C-415.14256396 571.97557888 -412.555028 572.65074213 -409.859375 573.44921875 C-381.33178799 581.35188895 -347.12473589 579.92121938 -318 576 C-317.21286621 575.89816406 -316.42573242 575.79632812 -315.61474609 575.69140625 C-302.56549494 573.95970141 -289.78247764 571.1091148 -277 568 C-275.96431885 567.75080811 -275.96431885 567.75080811 -274.90771484 567.49658203 C-254.90318871 562.62810992 -235.83062677 555.23776567 -217 547 C-216.2270459 546.66387695 -215.4540918 546.32775391 -214.65771484 545.98144531 C-180.25512219 530.87404968 -148.06053627 508.88034216 -120 484 C-118.64614717 482.83296916 -117.29203005 481.66624475 -115.9375 480.5 C-102.27470579 468.45821527 -88.72368859 455.96536091 -77 442 C-76.13503906 441.01257813 -75.27007813 440.02515625 -74.37890625 439.0078125 C-63.01574336 426.01487326 -52.62543405 412.32582554 -43 398 C-42.40324463 397.11513916 -42.40324463 397.11513916 -41.79443359 396.21240234 C-39.68313195 393.07963599 -37.58671072 389.93819041 -35.51171875 386.78125 C-33.82980963 384.22638451 -32.10073632 381.71422265 -30.33203125 379.21875 C-29.49201489 378.00011896 -28.65216465 376.7813734 -27.8125 375.5625 C-27.05582031 374.49128906 -26.29914063 373.42007812 -25.51953125 372.31640625 C-23.57973022 368.08275311 -23.65777117 365.32810239 -25 361 C-26.86344867 356.36999137 -29.02867088 351.90359105 -31.25 347.4375 C-31.88247894 346.14774104 -32.51488358 344.85794564 -33.1472168 343.56811523 C-51.80554796 305.76977083 -75.66272497 272.10307071 -104 241 C-104.90668535 239.98867139 -105.81291317 238.97693245 -106.71875 237.96484375 C-111.20301499 232.97863188 -115.69913695 228.15269192 -120.84765625 223.8359375 C-123.06028253 221.94857933 -125.19320878 219.98656904 -127.32226562 218.00585938 C-133.00946116 212.71927132 -138.85221357 207.75014702 -145 203 C-146.05353325 202.1772726 -147.10691057 201.35434551 -148.16015625 200.53125 C-166.01468389 186.6280264 -185.01885532 174.60676718 -205 164 C-205.81210937 163.56333008 -206.62421875 163.12666016 -207.4609375 162.67675781 C-222.20522113 154.79990783 -237.42913367 148.80346004 -253.09936523 143.08984375 C-255.33907917 142.24832511 -257.51134697 141.36337484 -259.6875 140.375 C-264.20949592 138.49794509 -268.83659801 137.25872073 -273.5625 136 C-274.53324463 135.73799805 -275.50398926 135.47599609 -276.50415039 135.20605469 C-282.97783429 133.48002558 -289.45314479 131.93718004 -296.02734375 130.640625 C-298.16089637 130.18083179 -300.27539893 129.62905547 -302.37109375 129.01953125 C-306.27041212 127.92402846 -310.13912324 127.13350492 -314.125 126.4375 C-314.86129639 126.30674072 -315.59759277 126.17598145 -316.35620117 126.04125977 C-322.01314378 125.0763059 -327.62620862 124.55100527 -333.36328125 124.30859375 C-336.05036053 123.99410595 -337.64337406 123.25935432 -340 122 C-308.13063819 121.15076006 -277.19119252 124.2834867 -246 131 C-244.50847412 131.32025146 -244.50847412 131.32025146 -242.98681641 131.64697266 C-217.04095959 137.36385636 -191.44086321 146.49160204 -167.375 157.6875 C-166.24473389 158.2129541 -165.11446777 158.7384082 -163.94995117 159.27978516 C-140.79275285 170.13077415 -118.49050389 182.63869799 -98 198 C-97.02675781 198.7115625 -96.05351563 199.423125 -95.05078125 200.15625 C-82.74608666 209.22459634 -70.96227763 218.87073604 -59.8359375 229.3515625 C-57.47890867 231.55275471 -55.08527255 233.66678071 -52.625 235.75 C-49.33949593 238.58590878 -46.52020713 241.68054631 -43.73828125 245.0078125 C-41.60147254 247.45673934 -39.30660078 249.71028502 -37 252 C-28.04606857 261.12615226 -20.07562453 270.77326974 -12.46191406 281.03710938 C-11.13206123 282.82268332 -9.78623662 284.59404671 -8.4296875 286.359375 C-3.58649047 292.69657518 0.83548651 299.19751494 5 306 C11.60688739 293.3771151 15.98147625 278.75726665 19.09716797 264.88012695 C19.95024328 261.21384089 20.91322122 257.59987214 21.91796875 253.97265625 C23.96857992 246.40041872 25.56796997 238.7766543 27 231.0625 C27.12595551 230.38856201 27.25191101 229.71462402 27.38168335 229.02026367 C29.35607731 218.38802892 30.97156243 207.72991578 32.3125 197 C32.55129883 195.09939819 32.55129883 195.09939819 32.79492188 193.16040039 C34.58901181 178.09537982 35.23507217 163.09428595 35.25 147.9375 C35.25200912 146.71333878 35.25200912 146.71333878 35.25405884 145.46444702 C35.24832365 129.1569459 34.0690255 113.18177777 32 97 C31.88253418 96.0615625 31.76506836 95.123125 31.64404297 94.15625 C27.75676144 64.09913283 18.39334797 33.57058405 3.2265625 7.26171875 C1.94536561 4.89925696 0.95120657 2.51136315 0 0 Z " fill="#52A024" transform="translate(714,466)"/>
<path d="M0 0 C3.57372354 2.73118637 4.45201013 6.6411394 5.7421875 10.75390625 C6.11756149 11.91538429 6.11756149 11.91538429 6.5005188 13.10032654 C7.03086725 14.74738531 7.55678564 16.39587613 8.07861328 18.0456543 C8.85659692 20.50434018 9.64760991 22.95848937 10.44140625 25.41210938 C12.00209789 30.26234065 13.51085041 35.12738098 15 40 C15.25446899 40.82409363 15.50893799 41.64818726 15.77111816 42.49725342 C16.51247033 44.91934072 17.23217878 47.34681646 17.9453125 49.77734375 C18.16855194 50.50200333 18.39179138 51.2266629 18.62179565 51.97328186 C20.15931689 57.34926567 20.50161862 62.00775508 17.89941406 67.19311523 C17.44276367 67.80872314 16.98611328 68.42433105 16.515625 69.05859375 C15.74134155 70.11953247 15.74134155 70.11953247 14.95141602 71.2019043 C14.10921509 72.30852417 14.10921509 72.30852417 13.25 73.4375 C12.66726318 74.2210083 12.08452637 75.0045166 11.48413086 75.81176758 C9.67592567 78.22376114 7.84408292 80.61535011 6 83 C5.45166504 83.70962891 4.90333008 84.41925781 4.33837891 85.15039062 C-11.00986846 104.8403607 -28.69186967 124.63827136 -48.421875 139.98046875 C-50.85577812 141.88702619 -53.1883902 143.88322006 -55.51708984 145.91601562 C-63.57173852 152.91155016 -72.16882324 159.0278373 -81 165 C-81.68578125 165.4640625 -82.3715625 165.928125 -83.078125 166.40625 C-117.68255845 189.65197629 -156.47881414 209.00782084 -197.28710938 218.37646484 C-200.11889102 219.0273261 -202.94235214 219.70775061 -205.765625 220.39453125 C-210.07522134 221.43857832 -214.38672505 222.47219566 -218.70751953 223.46899414 C-220.19494215 223.81352494 -221.68046758 224.16639283 -223.16357422 224.52905273 C-229.5126991 226.03648651 -235.89673036 226.82313227 -242.375 227.5625 C-243.43460938 227.68818359 -244.49421875 227.81386719 -245.5859375 227.94335938 C-248.72293845 228.31049613 -251.85883163 228.6700984 -255 229 C-255.80261765 229.08512848 -256.60523529 229.17025696 -257.43217468 229.25796509 C-264.14480279 229.9254506 -270.79165038 230.17346168 -277.53515625 230.203125 C-279.13843781 230.21357849 -279.13843781 230.21357849 -280.77410889 230.22424316 C-284.20361308 230.24154221 -287.63295399 230.24796265 -291.0625 230.25 C-292.8166774 230.25151062 -292.8166774 230.25151062 -294.60629272 230.25305176 C-311.29029001 230.24331154 -327.52199224 229.81612337 -344 227 C-346.01547684 226.68265137 -348.03110584 226.36626778 -350.046875 226.05078125 C-369.63942766 222.89003037 -389.20989516 218.45077615 -408 212 C-408.10441406 212.74765625 -408.20882812 213.4953125 -408.31640625 214.265625 C-411.14965964 225.59863857 -426.81101838 235.03012819 -436.19921875 240.79296875 C-442.59335324 244.58314188 -449.26435629 247.86539691 -456 251 C-456.63437988 251.30583008 -457.26875977 251.61166016 -457.92236328 251.92675781 C-462.65180923 254.11606359 -462.65180923 254.11606359 -466 253 C-465.47792969 252.44054688 -464.95585937 251.88109375 -464.41796875 251.3046875 C-449.06098662 234.57606598 -438.02868771 216.88199281 -429 196 C-423.56987933 196.63841577 -418.54933285 197.89194783 -413.3125 199.4375 C-407.20444596 201.19332444 -401.21828258 202.60631055 -394.91601562 203.50048828 C-392.14256396 203.97557888 -389.555028 204.65074213 -386.859375 205.44921875 C-358.33178799 213.35188895 -324.12473589 211.92121938 -295 208 C-293.81929932 207.84724609 -293.81929932 207.84724609 -292.61474609 207.69140625 C-279.56549494 205.95970141 -266.78247764 203.1091148 -254 200 C-253.3095459 199.83387207 -252.6190918 199.66774414 -251.90771484 199.49658203 C-231.90318871 194.62810992 -212.83062677 187.23776567 -194 179 C-193.2270459 178.66387695 -192.4540918 178.32775391 -191.65771484 177.98144531 C-157.25512219 162.87404968 -125.06053627 140.88034216 -97 116 C-95.64614717 114.83296916 -94.29203005 113.66624475 -92.9375 112.5 C-79.27470579 100.45821527 -65.72368859 87.96536091 -54 74 C-53.13503906 73.01257813 -52.27007813 72.02515625 -51.37890625 71.0078125 C-40.01574336 58.01487326 -29.62543405 44.32582554 -20 30 C-19.60216309 29.41009277 -19.20432617 28.82018555 -18.79443359 28.21240234 C-13.69038824 20.63897882 -8.67872562 13.01049048 -3.77929688 5.30297852 C-1.10164595 1.10164595 -1.10164595 1.10164595 0 0 Z " fill="#449122" transform="translate(691,834)"/>
<path d="M0 0 C4.94806877 2.48227201 9.25970052 5.23749989 13.51953125 8.765625 C14.36 9.44496094 15.20046875 10.12429688 16.06640625 10.82421875 C29.77692473 22.47815946 41.21122176 40.65077327 43.51953125 58.765625 C44.71134014 74.49937434 43.55812101 89.05348641 33.76953125 102.09765625 C27.5192409 108.90786845 18.06779104 114.41526905 8.74609375 115.00390625 C-9.8668232 115.4582774 -23.358038 110.07572703 -37.06640625 97.28125 C-52.63377169 81.05894686 -62.92597617 60.21807374 -62.84716797 37.63720703 C-62.52712637 25.45798622 -58.667884 15.84947258 -50.48046875 6.765625 C-36.32526436 -6.40200699 -17.2402854 -7.66234906 0 0 Z " fill="#539F25" transform="translate(684.48046875,574.234375)"/>
<path d="M0 0 C16.8486774 31.92034586 9.04680999 80.31781447 -1.02636719 112.98730469 C-9.53688482 139.32125343 -22.98833966 162.85669322 -42 183 C-43.1293983 184.32960982 -44.25454097 185.66284842 -45.375 187 C-65.03544024 209.39230095 -94.52998375 227.37666175 -123 236 C-124.32 236 -125.64 236 -127 236 C-126.75765625 236.56509277 -126.5153125 237.13018555 -126.265625 237.71240234 C-125.17336709 240.26503008 -124.08662255 242.81996859 -123 245.375 C-122.6184375 246.26445313 -122.236875 247.15390625 -121.84375 248.0703125 C-121.4828125 248.92109375 -121.121875 249.771875 -120.75 250.6484375 C-120.24726562 251.82672119 -120.24726562 251.82672119 -119.734375 253.02880859 C-119 255 -119 255 -119 257 C-119.99773437 256.76925781 -120.99546875 256.53851562 -122.0234375 256.30078125 C-131.15049122 254.21875353 -140.29889081 252.35063887 -149.5 250.625 C-162.07080206 248.24641958 -174.51149157 245.44207137 -186.95709229 242.48419189 C-190.09113645 241.7413885 -193.22667892 241.00497903 -196.36209106 240.26797485 C-200.72102209 239.24310608 -205.07927837 238.21538053 -209.4375 237.1875 C-210.71602844 236.88628235 -210.71602844 236.88628235 -212.02038574 236.57897949 C-214.45014682 236.00597914 -216.87943837 235.43103079 -219.30859375 234.85546875 C-220.04176315 234.68280991 -220.77493256 234.51015106 -221.53031921 234.33226013 C-224.40016475 233.65054573 -227.19979828 232.93340057 -230 232 C-230 231.34 -230 230.68 -230 230 C-228.61554688 229.5978125 -228.61554688 229.5978125 -227.203125 229.1875 C-202.3187864 221.7867362 -177.76814542 211.21567244 -156 197 C-155.43104004 196.63165039 -154.86208008 196.26330078 -154.27587891 195.88378906 C-147.29496217 191.32732317 -140.89919099 186.38068828 -134.828125 180.65234375 C-133 179 -133 179 -132 179 C-131.505 191.375 -131.505 191.375 -131 204 C-82.98303392 187.66089349 -42.87049326 160.95120198 -19.67919922 114.34570312 C-17.30924476 109.32484358 -15.07002446 104.24991896 -12.90649414 99.13696289 C-12.33307682 97.78519294 -11.75010809 96.43740065 -11.15405273 95.09545898 C-5.66047714 82.69508675 -3.72298375 68.95358783 -1.47485352 55.67236328 C-1.16078882 53.90488146 -0.81789197 52.14225757 -0.44506836 50.38623047 C1.1323408 42.76570035 1.26466398 35.39013364 1.1875 27.625 C1.18685547 26.40039062 1.18621094 25.17578125 1.18554688 23.9140625 C1.14735827 15.90294276 0.72651664 7.97747036 0 0 Z " fill="#499525" transform="translate(700,331)"/>
<path d="M0 0 C0.33 0 0.66 0 1 0 C1.01458252 1.2375 1.02916504 2.475 1.04418945 3.75 C1.40302083 31.99123662 2.53919077 59.00315874 8.50830078 86.68652344 C9.37892815 90.78288139 10.18707721 94.89186539 11 99 C4.81842856 98.39795395 -0.61833761 96.55317819 -6.4375 94.4375 C-7.35982422 94.10814453 -8.28214844 93.77878906 -9.23242188 93.43945312 C-11.4904648 92.63217353 -13.74615565 91.81891273 -16 91 C-17.91257973 97.66391611 -19.59572659 104.36392791 -21.125 111.125 C-21.29547852 111.86411621 -21.46595703 112.60323242 -21.64160156 113.36474609 C-23.79171394 123.01887891 -24.15811062 132.37199943 -24.125 142.25 C-24.12886719 143.38824219 -24.13273437 144.52648437 -24.13671875 145.69921875 C-24.08666835 189.79361863 -6.4457377 232.95540459 24.51757812 264.48242188 C25.98572668 265.98538818 27.42379829 267.51283624 28.859375 269.046875 C43.63290935 284.60906793 62.50091774 297.13232691 82 306 C77.75451684 307.41516105 74.77209127 305.81674331 70.75 304.3125 C69.91879639 304.0021582 69.08759277 303.69181641 68.23120117 303.37207031 C45.71334661 294.63883085 26.03968032 281.87790045 8 266 C7.22914063 265.35160156 6.45828125 264.70320313 5.6640625 264.03515625 C0.95000054 260.05258666 -3.04430467 255.72734021 -7 251 C-7.76183594 250.12601563 -8.52367187 249.25203125 -9.30859375 248.3515625 C-41.83995176 210.4913549 -55.04637322 164.31191013 -53 115 C-52.0607355 103.39225619 -49.28180291 92.14480279 -46 81 C-47.26457031 80.95101562 -48.52914063 80.90203125 -49.83203125 80.8515625 C-51.49220947 80.7765262 -53.15236464 80.70097873 -54.8125 80.625 C-55.64587891 80.5940625 -56.47925781 80.563125 -57.33789062 80.53125 C-58.14033203 80.49257813 -58.94277344 80.45390625 -59.76953125 80.4140625 C-60.87711792 80.36693115 -60.87711792 80.36693115 -62.00708008 80.31884766 C-64 80 -64 80 -67 78 C-66.38253906 77.33355469 -65.76507813 76.66710937 -65.12890625 75.98046875 C-59.1760194 69.50206068 -53.51574988 62.85820752 -48 56 C-42.90443361 49.68149767 -37.71099129 43.52209079 -32.2421875 37.5234375 C-29.95484096 34.94917642 -27.78451729 32.30710511 -25.625 29.625 C-21.95053081 25.07992486 -18.0875775 20.77960299 -14.10839844 16.50512695 C-10.10516686 12.17866625 -6.37380913 7.6766772 -2.6796875 3.08203125 C-1 1 -1 1 0 0 Z " fill="#59A824" transform="translate(351,253)"/>
<path d="M0 0 C0.67667221 -0.00423477 1.35334442 -0.00846954 2.05052185 -0.01283264 C4.22384972 -0.02265501 6.39696651 -0.02276455 8.5703125 -0.01953125 C9.31340668 -0.018927 10.05650085 -0.01832275 10.82211304 -0.0177002 C21.59148828 0.00614226 32.0631541 0.31327175 42.6953125 2.16796875 C43.78634277 2.32942383 43.78634277 2.32942383 44.89941406 2.49414062 C75.8618491 7.07829036 104.06117703 21.66061993 127.70703125 41.76953125 C129.69914893 43.45561593 129.69914893 43.45561593 132.6953125 43.16796875 C134.34690113 40.85986627 135.81754928 38.60208407 137.2578125 36.16796875 C138.68300824 33.78266539 140.14327821 31.47687744 141.6953125 29.16796875 C142.3553125 29.16796875 143.0153125 29.16796875 143.6953125 29.16796875 C159.54918117 60.41984404 174.42653248 92.16460683 188.6953125 124.16796875 C183.33732683 122.61021573 178.70122483 120.18044349 173.8203125 117.54296875 C172.10994375 116.63304471 170.3989978 115.72420486 168.6875 114.81640625 C167.84026367 114.36620117 166.99302734 113.91599609 166.12011719 113.45214844 C146.58844214 103.10814816 126.29276475 94.62173429 105.65917969 86.74682617 C104.5199707 86.30830322 103.38076172 85.86978027 102.20703125 85.41796875 C101.19084717 85.03125 100.17466309 84.64453125 99.12768555 84.24609375 C96.6953125 83.16796875 96.6953125 83.16796875 94.6953125 81.16796875 C95.54996094 80.33652344 96.40460938 79.50507813 97.28515625 78.6484375 C98.40130427 77.55104827 99.51717532 76.4533773 100.6328125 75.35546875 C101.47875977 74.5346582 101.47875977 74.5346582 102.34179688 73.69726562 C105.70560812 70.38836481 105.70560812 70.38836481 107.6953125 66.16796875 C78.1199382 38.45308437 38.15150481 19.20336162 -2.8984375 18.96484375 C-3.68883423 18.95914368 -4.47923096 18.9534436 -5.2935791 18.9475708 C-6.95742486 18.93819298 -8.62128859 18.93161587 -10.28515625 18.92773438 C-12.77118304 18.91809861 -15.25635624 18.88703486 -17.7421875 18.85546875 C-28.59079135 18.78413402 -38.70073105 19.92073242 -49.3046875 22.16796875 C-50.74315468 22.46122029 -52.18171296 22.75402536 -53.62036133 23.04638672 C-76.15766394 27.75592836 -100.13633835 36.72891232 -118.3046875 51.16796875 C-118.9646875 50.83796875 -119.6246875 50.50796875 -120.3046875 50.16796875 C-89.20424727 24.49356277 -54.5881262 6.87327771 -14.3046875 1.16796875 C-13.20656738 0.99289795 -12.10844727 0.81782715 -10.97705078 0.63745117 C-7.27931246 0.16472475 -3.72651568 0.02255995 0 0 Z " fill="#4B9723" transform="translate(490.3046875,181.83203125)"/>
<path d="M0 0 C4.42911406 -0.02486762 8.85819025 -0.04293889 13.28735352 -0.05493164 C14.7915925 -0.05993555 16.29582668 -0.06674073 17.80004883 -0.07543945 C19.97218009 -0.08767884 22.14424659 -0.09326786 24.31640625 -0.09765625 C25.62037354 -0.10289307 26.92434082 -0.10812988 28.26782227 -0.11352539 C31.95201033 -0.00145975 35.36971466 0.40625214 39 1 C37.21534065 3.41453912 35.98909146 4.00301726 33.0625 4.8125 C28.6839116 5.28065096 24.56737887 4.35026049 20.2734375 3.5390625 C15.80047217 2.80246439 11.33657324 2.5655183 6.8125 2.34375 C4.03645948 2.00445616 2.42790162 1.30233267 0 0 Z " fill="#75C049" transform="translate(374,588)"/>
<path d="M0 0 C0.66 0.33 1.32 0.66 2 1 C1.505 1.61875 1.01 2.2375 0.5 2.875 C-1.19222773 4.83880904 -1.19222773 4.83880904 -1 7 C-2.50240234 7.77923828 -2.50240234 7.77923828 -4.03515625 8.57421875 C-13.87233132 13.71298124 -13.87233132 13.71298124 -23 20 C-23.66 19.67 -24.32 19.34 -25 19 C-16.85270833 12.38439916 -8.734821 5.83691568 0 0 Z " fill="#5CA632" transform="translate(395,213)"/>
<path d="M0 0 C3.77724843 0.66710354 6.55782231 2.39461846 9.8125 4.375 C14.13129781 6.94936296 18.31470914 9.18977399 23 11 C19.52901466 12.15699511 18.85266875 11.82954442 15.55078125 10.56640625 C14.70322266 10.24736328 13.85566406 9.92832031 12.98242188 9.59960938 C12.10134766 9.25736328 11.22027344 8.91511719 10.3125 8.5625 C9.41982422 8.22412109 8.52714844 7.88574219 7.60742188 7.53710938 C5.40165826 6.69962693 3.19953824 5.85367026 1 5 C1.33 3.68 1.66 2.36 2 1 C1.34 0.67 0.68 0.34 0 0 Z " fill="#549E38" transform="translate(410,548)"/>
<path d="M0 0 C3.66838913 3.51852599 6.77165817 7.15520139 9.8125 11.25 C10.60269531 12.30703125 11.39289062 13.3640625 12.20703125 14.453125 C14 17 14 17 14 18 C12.35 18 10.7 18 9 18 C7.87159372 15.93930083 6.74721229 13.87656904 5.625 11.8125 C4.99851562 10.66394531 4.37203125 9.51539063 3.7265625 8.33203125 C2.30306245 5.58486938 1.07941553 2.89479619 0 0 Z " fill="#6CB24C" transform="translate(714,466)"/>
<path d="M0 0 C0 0.99 0 1.98 0 3 C-1.38795586 3.94787229 -2.78301877 4.88690975 -4.2109375 5.7734375 C-9.57210171 9.4489955 -13.50461825 13.98172637 -16 20 C-16.66 20 -17.32 20 -18 20 C-14.62152845 10.71328352 -8.42117536 4.86938711 0 0 Z " fill="#6BB535" transform="translate(644,574)"/>
<path d="M0 0 C0.66 0.99 1.32 1.98 2 3 C-0.28560647 4.5306999 -2.57762667 6.04965044 -4.875 7.5625 C-5.52597656 8.00013672 -6.17695313 8.43777344 -6.84765625 8.88867188 C-8.52625497 9.98754836 -10.26023387 11.0007818 -12 12 C-12.66 11.67 -13.32 11.34 -14 11 C-9.38 7.37 -4.76 3.74 0 0 Z " fill="#70C056" transform="translate(384,221)"/>
<path d="M0 0 C0.66 0 1.32 0 2 0 C2.66 1.65 3.32 3.3 4 5 C3.401875 5.103125 2.80375 5.20625 2.1875 5.3125 C-0.28243264 6.08876455 -1.32251235 7.07088921 -3 9 C-3.66 8.67 -4.32 8.34 -5 8 C-4.21718695 6.66144944 -3.42348123 5.32926356 -2.625 4 C-2.18414063 3.2575 -1.74328125 2.515 -1.2890625 1.75 C-0.86367188 1.1725 -0.43828125 0.595 0 0 Z " fill="#509E36" transform="translate(632,211)"/>
<path d="M0 0 C2.97 0 5.94 0 9 0 C5.48283697 3.51716303 3.80432667 3.54676163 -1 4 C-0.67 2.68 -0.34 1.36 0 0 Z " fill="#69B432" transform="translate(404,589)"/>
<path d="M0 0 C0.33 0 0.66 0 1 0 C1.33 2.97 1.66 5.94 2 9 C1.01 9.33 0.02 9.66 -1 10 C-0.67 6.7 -0.34 3.4 0 0 Z " fill="#69A45E" transform="translate(704,347)"/>
</svg>
